<?xml version="1.0" encoding="utf-8"?>
<!-- Generator: Adobe Illustrator 17.0.0, SVG Export Plug-In . SVG Version: 6.00 Build 0)  -->
<!DOCTYPE svg PUBLIC "-//W3C//DTD SVG 1.1//EN" "http://www.w3.org/Graphics/SVG/1.1/DTD/svg11.dtd">
<svg version="1.1" id="Livello_1" xmlns="http://www.w3.org/2000/svg" xmlns:xlink="http://www.w3.org/1999/xlink" x="0px" y="0px"
	 width="1077.17px" height="1077.17px" viewBox="0 0 1077.17 1077.17" enable-background="new 0 0 1077.17 1077.17"
	 xml:space="preserve">
<g>
	<g>
		<path fill="#1F2C51" d="M12,0c355.333,0,710.667,0,1066,0c-0.001,359.609-0.001,719.218-0.001,1078.827
			c-2.161,0.053-4.323,0.152-6.485,0.152c-351.51,0.005-703.021,0.004-1054.532-0.004c-1.662,0-3.324-0.1-4.986-0.154
			C11.998,719.214,11.999,359.607,12,0z M538.02,239.551c-161.574-0.953-299.841,130.864-300.608,299.512
			c-0.737,162.159,130.808,300.817,299.779,301.539c162.124,0.693,300.808-130.529,301.417-300.107
			C839.192,378.366,707.625,239.283,538.02,239.551z"/>
		<path fill="#0F1419" d="M1077.998,1078.827C1077.999,719.218,1077.999,359.609,1078,0c5.129-1.129,6.143,0.87,6.141,6
			c-0.155,357.667-0.141,715.333-0.141,1073C1081.999,1078.942,1079.999,1078.885,1077.998,1078.827z"/>
		<path fill="#1B2B4B" d="M2,0c1.333,0,2.667,0,4,0C5.998,359.607,5.996,719.214,5.994,1078.821c-1.33-0.001-2.66-0.001-3.989-0.002
			C2.003,719.213,2.002,359.606,2,0z"/>
		<path fill="#232C56" d="M5.994,1078.821C5.996,719.214,5.998,359.607,6,0c1.333,0,2.667,0,4,0
			c0.002,359.607,0.004,719.214,0.006,1078.821C8.669,1078.821,7.331,1078.821,5.994,1078.821z"/>
		<path fill="#F5F8F8" d="M5.994,1078.821c1.337,0,2.674,0,4.012,0c0.664,0,1.327,0,1.991,0c1.662,0.053,3.324,0.154,4.986,0.154
			c351.511,0.008,703.021,0.01,1054.532,0.004c2.162,0,4.323-0.099,6.485-0.152c2,0.058,4,0.115,6.001,0.173
			c-0.218,0.308,0.506,1.043-0.5,1.01c-1.332-0.043-2.666-0.01-4-0.01c-360,0-720-0.007-1080,0.093
			c-3.749,0.001-4.594-0.844-4.593-4.593c0.1-357,0.091-714,0.155-1071C-4.938,3.037-6.091,1.109-4,0
			c0.005,357.669,0.011,715.338,0.017,1073.006c0,1.499,0.029,2.999,0.005,4.498c-0.024,1.479,0.866,1.531,1.957,1.321
			c0.673,0,1.346,0,2.019,0c0.669-0.002,1.338-0.004,2.006-0.005C3.335,1078.82,4.664,1078.821,5.994,1078.821z"/>
		<path fill="#0F1419" d="M-2.021,1078.825c-1.091,0.211-1.981,0.158-1.957-1.321c0.024-1.499-0.005-2.998-0.005-4.498
			C-3.989,715.338-3.995,357.669-4,0c0.667,0,1.333,0,2,0c0,94.651,0.001,189.303-0.001,283.954
			C-2.007,548.911-2.014,813.868-2.021,1078.825z"/>
		<path fill="#1B2B4B" d="M11.997,1078.821c-0.664,0-1.327,0-1.991,0C10.004,719.214,10.002,359.607,10,0c0.667,0,1.333,0,2,0
			C11.999,359.607,11.998,719.214,11.997,1078.821z"/>
		<path fill="#232C56" d="M2.005,1078.819c-0.669,0.002-1.338,0.004-2.006,0.005C-0.001,719.216-0.001,359.608,0,0
			c0.667,0,1.333,0,2,0C2.002,359.606,2.003,719.213,2.005,1078.819z"/>
		<path fill="#1B2B4B" d="M0,0c-0.001,359.608-0.001,719.216-0.001,1078.825c-0.673,0-1.346,0-2.019,0
			c0.007-264.957,0.014-529.914,0.02-794.871C-1.999,189.303-2,94.651-2,0C-1.333,0-0.667,0,0,0z"/>
		<path fill="#42A4DC" d="M538.02,239.551c169.605-0.267,301.172,138.816,300.589,300.943
			c-0.61,169.578-139.293,300.8-301.417,300.107c-168.971-0.722-300.516-139.379-299.779-301.539
			C238.179,370.415,376.446,238.597,538.02,239.551z M814.066,540.288c0.443-152.219-123.133-276.376-275.767-276.401
			c-152.591-0.025-275.906,123.011-276.411,275.332c-0.507,153.023,123.97,276.84,275.812,276.927
			C690.438,816.233,814.233,692.297,814.066,540.288z"/>
		<path fill="#1F2C51" d="M814.066,540.288c0.167,152.009-123.628,275.945-276.365,275.858
			c-151.842-0.087-276.319-123.904-275.812-276.927c0.505-152.321,123.819-275.357,276.411-275.332
			C690.933,263.912,814.508,388.069,814.066,540.288z M701.018,582.01c2.417-1.752,4.856-3.488,5.228-6.81
			c4.412-3.142,5.978-8.558,9.754-12.208c3.16-4.554,8.576-6.614,12.01-10.865c4.943-2.649,9.702-5.747,14.863-7.863
			c16.493-6.765,20.709-22.453,13.613-36.907c-11.703-23.837-23.788-47.489-35.936-71.104c-2.915-5.666-5.89-11.418-11.212-15.504
			c-5.657-4.344-14.28-4.931-20.04,0.138c-8.206,7.222-17.425,12.254-29.278,11.336c-7.771-0.602-15.007-2.504-22.272-4.885
			c-9.264-3.036-18.265-6.794-28.213-7.728c-3.499-0.328-7.779,1.652-10.798-1.914c2.684-3.802,5.258-7.665,7.186-11.926
			c3.623-8.006,5.219-16.201,1.59-24.594c-2.264-5.237-5.753-9.415-11.947-10.154c-6.228-0.743-10.513,2.436-13.805,7.243
			c-6.675,9.748-13.913,18.95-23.851,25.653c-10.827-6.613-19.865-15.352-28.742-24.27c-3.057-3.071-6.309-5.893-10.12-7.958
			c-10.073-5.458-21.596-0.522-22.879,10.182c-0.907,7.572-0.349,15.048,3.22,22.305c2.856,5.806,7.414,10.574,9.52,16.747
			c-18.375,10.235-37.562,18.592-58.229,22.74c-10.337,2.075-20.904,1.748-30.522-3.919c-8.017-4.723-16.111-9.316-24.08-14.116
			c-13.307-8.016-27.18-4.739-35.151,8.468c-12.693,21.03-25.428,42.035-37.98,63.15c-2.523,4.244-5.964,8.135-6.851,13.178
			c-3.242,18.43,3.592,25.541,20.571,33.715c6.498,5.299,14.298,8.491,21.22,13.103c0,0.259,0.035,0.513,0.104,0.762
			c-3.386,0.89-4.703,2.317-2.769,6.053c2.418,4.672,0.236,10.33-4.521,11.707c-3.656,1.058-2.912,3.186-1.352,4.585
			c5.805,5.206,9.962,12.34,19.49,12.813c11.747,0.583,17.418-1.28,20.232-9.322c0.325,0.012,0.649,0.031,0.973,0.056
			c1.627,2.383,3.669,4.353,6.001,6.035c4.676,4.781,9.353,9.563,14.029,14.344c3.555,6.238,9.041,10.974,13.088,16.829
			c-4.79,5.787-8.321,11.964-6.174,19.903c-0.344,1.764,0.815,2.755,1.938,3.763c-0.65,2.541,1.424,3.997,2.55,5.643
			c6.326,9.248,18.963,15.535,29.438,7.465c2.023,1.718-0.087,2.865-0.614,4.195c-2.49,6.283-1.754,12.25,1.654,17.98
			c5.094,14.591,20.676,18.924,32.268,9c2.503-2.143,5.11-4.166,7.669-6.244c0.566,0.469,0.794,1.081,0.425,1.72
			c-3.812,6.597-0.894,12.088,2.831,17.453c0.303,0.023,0.606,0.046,0.91,0.069l-0.065-0.109c-0.176,3.534,2.413,5.282,4.791,6.959
			c5.679,4.005,16.037,3.696,21.571-0.703c3.635-2.889,7.11-6.006,10.431-9.252c2.131-2.082,3.853-2.18,6.523-0.793
			c8.679,4.507,17.343,9.149,26.378,12.843c14.583,5.964,29.654-3.572,30.152-18.547c0.886-4.508-0.007-8.857-1.178-13.182
			c3.567,1.371,7.132,2.746,10.7,4.112c4.317,1.653,8.471,1.326,12.41-1.117c7.427-4.607,11.545-11.24,12.164-19.996
			c1.341-5.531,0.437-10.609-3.06-15.164c1.166,0.575,2.388,1.059,3.488,1.74c8.428,5.223,16.421,5.075,23.976-1.75
			c3.494-3.157,5.916-6.991,7.561-11.36c2.323-4.231,3.292-8.665,2.008-13.436c-0.655-2.065-1.311-4.129-1.966-6.194
			c0.58-4.628,4.981-5.4,7.901-7.444c8.151-5.705,16.862-10.66,23.174-18.638C695.599,587.269,699.818,586.147,701.018,582.01z"/>
		<path fill="#1C4B7B" d="M598.736,417.697c3.019,3.566,7.299,1.586,10.798,1.914c9.948,0.934,18.949,4.691,28.213,7.728
			c7.265,2.381,14.501,4.283,22.272,4.885c11.853,0.918,21.072-4.113,29.278-11.336c5.76-5.069,14.382-4.481,20.04-0.138
			c5.322,4.086,8.297,9.838,11.212,15.504c12.148,23.615,24.233,47.267,35.936,71.104c7.096,14.453,2.88,30.142-13.613,36.907
			c-5.161,2.117-9.92,5.215-14.863,7.862c-0.06-2.492-2.212-3.549-3.536-5.175c-0.596-0.732-1.727-2.065-0.594-2.407
			c5.265-1.591,2.81-6.785,4.759-9.951c1.019-1.655,1.662-5.164-1.647-6.898c-1.305-0.684-1.015-2.021,0.011-2.899
			c1.017-0.87,2.079-0.975,2.807,0.485c0.378,0.758-0.018,2.179,2.112,1.88c-0.158-5.093-3.111-9.937-1.923-15.161
			c3.651-1.745,1.689-4.019,1.558-6.12c-0.519-0.04-1.038-0.08-1.557-0.12c0,2.08,0,4.161,0,6.241
			c-3.142,0.227-6.167,0.138-8.049-3.007c0.005-0.314,0.004-0.627-0.002-0.942c-2.814-4.542-7.591-5.777-12.576-6.83
			c1.78-2.253,4.568-0.116,6.062-2.292c-1.651-1.593-3.552-0.849-5.247-0.904c-13.605-0.445-27.219,0.517-40.841-0.451
			c-2.847-0.202-7.086-0.997-8.896,1.526c-1.949,2.717-2.818,5.506-7.029,5.255c-1.838-0.11-1.57,2.343-1.282,3.69
			c0.295,1.384,1.209,2.636,1.852,3.946c-4.152,0.003-8.305,0.069-12.456-0.012c-2.839-0.055-5.694-0.351-6.799,4.119
			c0.218-4.817-4.222-3.807-5.729-6.079c0.982-0.018,1.964-0.036,2.946-0.053c1.194-0.151,2.756,0.46,2.598-1.864
			c-0.235-3.448-1.734-6.104-4.455-8.089c-5.5-4.01-11.693-2.029-17.663-1.95c-7.042-0.817-13.715-3.043-19.957-6.213
			c-11.163-5.669-20.517-13.757-29-22.904c-1.359-1.466-2.446-3.863-5.246-2.72c-0.097-5.24-11.008-13.044-17.58-12.575
			c0.842-2.528-1.151-3.58-2.614-4.801c-7.616-6.358-14.993-12.927-21.499-20.487c-2.28-2.65-3.788-6.318-7.63-7.44
			c-2.106-6.173-6.664-10.941-9.52-16.747c-3.569-7.257-4.127-14.733-3.22-22.305c1.283-10.704,12.806-15.641,22.879-10.182
			c3.811,2.065,7.063,4.887,10.12,7.958c8.878,8.919,17.915,17.657,28.742,24.271c0.201,0.447,0.278,1.072,0.623,1.315
			c9.858,6.954,20.504,12.103,32.595,13.695C593.69,419.266,596.452,419.637,598.736,417.697z"/>
		<path fill="#3495D1" d="M508.908,420.925c3.842,1.122,5.35,4.791,7.63,7.44c6.506,7.56,13.883,14.129,21.499,20.487
			c1.463,1.221,3.456,2.273,2.615,4.802c-10.532,10.8-11.182,21.145-1.918,30.555c2.648,4.541,7.683,6.356,11.249,9.848
			c-0.68,4.457-4.02,4.045-7.212,3.98c-1.201-0.024-2.438,0.162-2.574,1.719c-0.163,1.854,1.125,2.1,2.574,2.246
			c1.839,0.186,3.864-0.553,6.27,1.212c-3.539,1.182-6.439,0.944-9.263,0.472c-1.385-0.231-2.746-0.563-3.781,0.388
			c-3.058,2.807-6.145,1.696-9.233,0.258c-1.555-0.724-3.021-0.706-4.745-0.642c-7.312,0.274-14.674,0.551-21.946-0.049
			c-3.687-0.304-7.22-0.889-10.77,0.323c-3.688,1.259-6.428,0.321-8.412-3.096c-0.907-1.563-1.907-3.116-4.31-2.418
			c-9.036,2.625-18.095,2.481-27.13-0.069c-1.643-0.464-3.417-0.837-4.816,0.201c-2.51,1.863-4.542,1.348-7.293,0.157
			c-2.816-1.219-6.878-2.403-8.99,0.875c-1.426,2.212-2.828,2.228-4.797,2.413c-5.495,0.517-10.692-0.951-16.019-1.863
			c-3.262-0.558-6.474-0.486-9.387-2.506c-2.226-1.544-4.803-2.555-7.647-0.771c1.057,1.494,2.336,0.961,3.413,1.15
			c0.867,0.152,1.685,0.376,1.805,1.371c0.137,1.137-0.539,1.829-1.526,2.292c-2.211,1.037-13.003-0.905-13.841-2.987
			c-1.912-4.752-3.155-2.253-4.838,0.026c-1.272,1.723-2.761,3.939-5.224,3.059c-6.908-2.468-11.967,1.49-15.128,5.986
			c-6.934,9.86-14.112,20.218-8.573,33.512c0.249,0.598,0.33,1.293,0.363,1.949c0.06,1.181-0.002,2.38-1.154,3.101
			c-1.26,0.789-2.429,0.056-3.132-0.744c-1.728-1.966-3.849-1.623-6.001-1.462c-16.98-8.175-23.814-15.286-20.571-33.715
			c0.887-5.044,4.328-8.935,6.851-13.178c12.552-21.114,25.288-42.119,37.98-63.15c7.971-13.207,21.843-16.484,35.151-8.468
			c7.969,4.801,16.064,9.393,24.08,14.116c9.618,5.667,20.185,5.993,30.522,3.919C471.346,439.516,490.532,431.159,508.908,420.925z
			"/>
		<path fill="#3495D1" d="M626.876,647.107c3.496,4.555,4.4,9.633,3.059,15.162c-1.387,2.243-2.626,4.598-4.188,6.714
			c-4.705,6.372-13.288,9.23-20.357,5.956c-14.305-6.625-28.915-12.621-42.714-20.328c-15.527-8.673-30.868-17.642-45.399-27.92
			c-2.279-1.612-3.08-0.986-4.562,1.117c-2.61,3.704-1.304,5.743,1.946,7.878c11.257,7.395,22.793,14.266,34.737,20.529
			c15,7.865,30.837,14.08,45.263,23.059c1.171,4.324,2.064,8.673,1.178,13.178c-0.662,1.321-1.295,2.661-1.989,3.969
			c-3.476,6.55-11.375,11.054-16.642,9.261c-15.507-5.278-30.492-11.859-45.116-19.172c-11.38-5.691-22.424-12.064-33.52-18.308
			c-24.209-13.624-47.282-28.91-68.393-47.054c-6.634-5.702-13.4-11.25-20.106-16.869c-4.676-4.781-9.353-9.563-14.029-14.344
			c0.576-0.264,1.555-0.873,1.668-0.741c2.621,3.064,5.522,2.301,8.599,0.881c0.688-0.317,1.781-0.346,2.45-0.02
			c5.132,2.507,11.078,0.902,16.208,3.288c1.169,0.543,2.472,0.867,2.809-0.709c0.796-3.715,4.108-3.35,6.348-3.445
			c6.593-0.279,13.171-0.478,19.78,1.154c9.551,2.358,19.379,2.675,29.068,0.752c12.758-2.532,25.444-5.13,38.601-4.231
			c2.87,0.196,5.592,2.062,8.031,1.516c4.263-0.954,4.458,1.278,4.665,4.154c0.083,1.569,1.323,2.26,2.41,2.955
			c21.83,13.955,43.866,27.531,67.09,39.126C611.588,638.517,620.048,641.339,626.876,647.107z"/>
		<path fill="#3495D1" d="M661.941,616.108c0.655,2.065,1.311,4.129,1.966,6.191c-1.268,3.887-2.534,7.777-3.801,11.667
			c-6.705,8.617-12.6,10.245-21.992,6.002c-13.47-6.085-26.892-12.307-39.801-19.495c-12.898-7.182-26.11-13.841-38.427-22.043
			c-1.218-7.728,3.496-10.779,9.871-12.521c0.16-0.044,0.344-0.062,0.472-0.154c4.066-2.936,7.58-1.937,11.229,1.08
			c5.677,4.694,12.166,5.819,19.576,4.922c3.321-0.402,6.793-3.014,10.221-0.855c2.628,1.655,4.662,1.07,6.713-0.783
			c4.559,2.341,9.059,4.808,13.692,6.992c5.943,2.802,11.33,7.046,18.294,7.3c-1.005,0.685-2.008,1.194,0.058,1.977
			C655.039,608.29,659.029,611.561,661.941,616.108z M587.574,593.256c-0.101-0.259-0.139-0.657-0.319-0.737
			c-0.18-0.079-0.501,0.16-0.76,0.259c0.101,0.259,0.139,0.655,0.319,0.737C586.992,593.597,587.315,593.357,587.574,593.256z"/>
		<path fill="#2E8BC6" d="M336.666,544.141c2.152-0.161,4.272-0.504,6.001,1.462c0.703,0.8,1.872,1.533,3.132,0.744
			c1.152-0.721,1.214-1.92,1.154-3.101c-0.034-0.656-0.114-1.351-0.363-1.949c-5.54-13.293,1.639-23.652,8.573-33.512
			c3.161-4.495,8.221-8.453,15.128-5.986c2.462,0.88,3.952-1.336,5.224-3.059c1.683-2.28,2.926-4.778,4.838-0.026
			c0.838,2.083,11.63,4.024,13.841,2.987c0.987-0.463,1.663-1.155,1.526-2.292c-0.12-0.995-0.938-1.219-1.805-1.371
			c-1.077-0.188-2.356,0.345-3.413-1.15c2.845-1.784,5.421-0.773,7.647,0.771c2.912,2.02,6.125,1.948,9.387,2.506
			c5.327,0.912,10.524,2.38,16.019,1.863c1.969-0.185,3.371-0.201,4.797-2.413c2.112-3.277,6.174-2.094,8.99-0.875
			c2.751,1.191,4.783,1.706,7.293-0.157c1.399-1.038,3.172-0.665,4.816-0.201c9.035,2.55,18.094,2.694,27.13,0.069
			c2.403-0.698,3.403,0.856,4.31,2.418c1.984,3.417,4.724,4.355,8.412,3.096c3.55-1.212,7.083-0.627,10.77-0.323
			c7.272,0.599,14.634,0.323,21.946,0.049c1.724-0.065,3.19-0.082,4.745,0.642c3.089,1.438,6.176,2.549,9.233-0.258
			c1.036-0.951,2.396-0.619,3.781-0.388c2.824,0.472,5.724,0.709,9.263-0.472c-2.406-1.765-4.432-1.026-6.27-1.212
			c-1.449-0.146-2.737-0.393-2.574-2.246c0.137-1.557,1.374-1.744,2.574-1.719c3.192,0.065,6.532,0.476,7.212-3.981
			c1.983,0.623,3.414,1.904,4.41,3.704c-0.904,0.451-2.72-0.233-2.648,1.25c0.073,1.508,1.714,0.929,2.704,0.852
			c0.552-0.043,1.065-0.575,1.596-0.887c4.502,1.734,7.704,5.538,12.027,7.557c1.014,1.51,3.427,1.402,3.982,3.443
			c-1.107,0.028-2.215,0.055-3.322,0.083c-7.568-0.002-15.136-0.004-22.704-0.006c-4.717,1.772-11.035,0.631-12.834,7.788
			c-1.375-1.346-0.993-2.57-1.26-3.605c-0.751-2.911-4.777-5.12-7.067-3.961c-3.748-0.972-7.567-0.3-11.35-0.476
			c-2.802-0.13-5.68-0.395-7.614,2.344c-0.591-0.005-1.181-0.01-1.773-0.017c-1.428,0.012-3.025-0.592-3.982,1.11
			c-0.308,0.548-1.104,1.522-1.242,1.145c-1.866-5.091-6.215,1.84-8.274-1.774c-4.58,2.816-6.655-0.572-8.878-3.586
			c-1.207-1.636-2.862-2.216-4.784-1.802c-5.786,1.247-11.347-0.387-16.973-1.214c-1.935-3.575-4.655-1.761-7.22-1.01
			c2.242,1.492,4.804,0.774,7.229,1c-0.338,2.389-2.198,1.996-3.773,2.01c-1.69,0.015-3.297,0.097-4.159,1.887
			c-0.302,0.164-0.623,0.22-0.963,0.168c-3.694-0.311-7.389,1.731-11.082-0.009c-1.988-0.019-4.004,0.168-5.959-0.098
			c-4.778-0.65-6.645,0.73-6.41,6.066c0.495,11.246,0.22,22.529,0.172,33.796c-0.012,2.78,0.54,5.643-0.748,8.321
			c-0.084-12.648-0.168-25.297-0.252-37.946c0.04-0.823,0.279-1.697,0.082-2.458c-0.472-1.825,1.511-5.09-1.657-5.195
			c-2.301-0.076-3.486,2.611-3.286,5.232c0.03,0.395-0.231,0.812-0.357,1.221c-3.038-1.356-5.456-3.396-8.496-6.177
			c0,4.439,0,7.857,0,11.274c-0.091,11.384-0.181,22.768-0.272,34.153c-1.155-1.824-0.797-3.875-0.799-5.843
			c-0.014-12.49-0.197-24.986,0.163-37.466c0.131-4.548-1.657-5.389-5.493-4.975c-3.341,0.36-7.326-1.382-7.136,4.979
			c0.415,13.972,0.106,27.966,0.093,41.952c-1.147-1.829-0.657-3.87-0.669-5.816c-0.075-12.417-0.036-24.834-0.172-37.25
			c-0.016-1.419,1.232-4.897-2.752-2.882c-0.626,5.51-3.697-0.985-5.036,1.026c-0.113-1.721-1.213-2.597-2.665-3.256
			c-6.812-3.093-13.617-1.074-20.272,0.367c-4.794,1.038-8.156,4.806-9.248,9.372c-0.899,3.76-5.381,7.599-0.94,11.898
			c0.253,0.244,0.09,0.965,0.049,1.458c-0.336,4.034,0.122,7.856,2.664,11.228c0.61,0.809,1.936,2.247,0.01,2.705
			c-3.915,0.932-1.801,3.105-0.719,4.15c4.088,3.945,3.522,6.253-2.036,7.36C350.964,552.632,343.164,549.44,336.666,544.141z"/>
		<path fill="#2E8BC6" d="M617.967,590.118c-2.051,1.853-4.085,2.438-6.713,0.783c-3.428-2.158-6.899,0.453-10.221,0.855
			c-7.41,0.897-13.898-0.228-19.576-4.922c-3.649-3.017-7.163-4.016-11.229-1.08c-0.128,0.092-0.312,0.111-0.472,0.154
			c-6.375,1.742-11.089,4.793-9.871,12.519c-5.501-1.513-9.57-5.57-14.46-8.187c-6.782-3.629-6.679-3.821-11.156,2.292
			c-0.207-2.876-0.401-5.108-4.665-4.154c-2.44,0.546-5.162-1.32-8.031-1.516c-13.157-0.9-25.843,1.698-38.601,4.231
			c-9.688,1.923-19.517,1.606-29.068-0.752c-6.609-1.632-13.187-1.433-19.78-1.154c-2.24,0.095-5.551-0.27-6.348,3.445
			c-0.338,1.575-1.641,1.252-2.809,0.709c-5.13-2.386-11.075-0.781-16.208-3.288c-0.668-0.326-1.762-0.297-2.45,0.02
			c-3.077,1.419-5.978,2.183-8.599-0.881c-0.113-0.132-1.092,0.477-1.668,0.741c-2.332-1.682-4.374-3.652-6.001-6.035
			c0.649-2.427-1.542-3.871-2.043-5.9c2.577-0.475,5.554,2.043,6.988,1.256c5.871-3.223,10.587,0.924,15.652,1.799
			c6.83,1.179,14.001,2.586,20.006-0.392c8.767-4.348,16.644-2.62,24.674,0.585c6.657,2.656,13.342,3.633,20.323,2.256
			c7.07-1.395,14.155-2.787,21.124-4.598c3.083-0.802,7.065,0.819,9.175-2.994c0.042-0.622,0.083-1.244,0.125-1.866
			c0.935,0.605,1.429,1.805,2.745,1.911c5.564,0.45,11.268-0.901,16.695,1.295c0.17-0.444,0.339-0.888,0.509-1.332
			c4.669-0.298,9.477,1.542,14.004-0.918c0,0-0.045,0.026-0.045,0.026c0.299-0.263,0.598-0.525,0.897-0.788
			c1.611,1.086,3.278,1.991,5.33,1.644c2.101,0.002,4.223,0.186,6.299-0.045c2.174-0.242,5.023,1.42,6.279-1.906
			c0.137-0.399,0.274-0.8,0.411-1.201c0.293-0.234,0.585-0.468,0.878-0.702c0.649,0.085,1.489-0.06,1.917,0.293
			c3.419,2.821,4.099,1.019,4.026-2.272c-0.029-1.317-0.044-2.643,0.072-3.953c0.151-1.717,1.589-2.611,2.724-1.708
			c2.728,2.171,6.455,1.515,9.221,4.184c1.997,1.928,4.728,4.021,7.967,4.428c-0.031,1.678,0.397,3.082,2.429,2.942
			c2.266-0.157,3.798,1.042,5.107,2.574c2.634,3.081,5.934,4.025,9.817,3.369C608.222,584.63,613.094,587.374,617.967,590.118z"/>
		<path fill="#CFDAE5" d="M410.073,604.279c6.706,5.619,13.472,11.167,20.106,16.869c21.11,18.143,44.184,33.43,68.393,47.054
			c11.095,6.244,22.14,12.617,33.52,18.308c14.624,7.313,29.609,13.894,45.116,19.172c5.266,1.792,13.166-2.712,16.642-9.261
			c0.694-1.308,1.328-2.647,1.989-3.969c-0.498,14.978-15.569,24.514-30.152,18.55c-9.035-3.695-17.699-8.336-26.378-12.843
			c-2.67-1.387-4.393-1.289-6.523,0.793c-3.321,3.246-6.797,6.362-10.431,9.252c-5.534,4.399-15.892,4.709-21.571,0.703
			c-2.378-1.677-4.967-3.426-4.792-6.96c13.615,7.743,15.972,3.414,30.964-9.397c-0.164-0.264-0.27-0.635-0.509-0.769
			c-7.209-4.042-14.718-7.633-21.548-12.234c-4.545-3.062-7.657-2.621-10.967,1.159c-0.643,0.735-1.358,1.407-2.04,2.108
			c-2.559,2.078-5.166,4.101-7.669,6.244c-11.592,9.924-27.174,5.591-32.268-9.001c0.941,0.678,1.883,1.357,2.824,2.035
			c6.692,6.422,13.742,6.856,20.795,1.224c2.961-2.365,5.853-4.816,8.777-7.228c2.016-1.384,4.224-2.54,5.858-4.936
			c-8.177-5.166-16.232-10.328-24.362-15.37c-8.105-5.026-8.137-4.973-14.931,2.098c-10.477,8.07-23.113,1.783-29.439-7.465
			c-1.126-1.646-3.2-3.102-2.55-5.643c2.333,0.724,2.327,3.69,4.435,4.629l0.263,0.018c0.389,0.315,0.779,0.629,1.168,0.944
			l-0.097-0.043c6.265,5.862,11.608,6.342,18.067,1.621c3.148-1.525,5.566-3.92,8.105-6.443
			c-9.847-7.722-19.929-14.756-27.706-24.391C419.114,615.253,413.628,610.517,410.073,604.279z"/>
		<path fill="#3495D1" d="M598.736,417.697c-2.284,1.94-5.046,1.569-7.609,1.232c-12.091-1.592-22.737-6.741-32.595-13.695
			c-0.345-0.243-0.422-0.868-0.623-1.315c9.939-6.704,17.176-15.906,23.851-25.653c3.292-4.807,7.577-7.986,13.805-7.243
			c6.194,0.739,9.683,4.918,11.947,10.154c3.629,8.393,2.032,16.588-1.59,24.594C603.994,410.031,601.42,413.895,598.736,417.697z"
			/>
		<path fill="#CFDAE5" d="M534.27,592.533c4.477-6.113,4.374-5.921,11.156-2.292c4.89,2.617,8.959,6.674,14.46,8.187
			c12.317,8.204,25.528,14.863,38.427,22.045c12.909,7.188,26.331,13.41,39.801,19.495c9.392,4.243,15.287,2.615,21.991-6.002
			c1.232-0.053,1.716,0.653,1.795,1.771c-1.645,4.369-4.066,8.204-7.561,11.36c-7.555,6.825-15.549,6.974-23.976,1.75
			c-1.1-0.682-2.323-1.165-3.488-1.74c-6.827-5.769-15.287-8.591-23.105-12.494c-23.224-11.594-45.261-25.171-67.09-39.126
			C535.593,594.793,534.353,594.102,534.27,592.533z"/>
		<path fill="#CFDAE5" d="M594.661,679.273c-14.426-8.979-30.263-15.194-45.263-23.059c-11.944-6.262-23.48-13.134-34.737-20.529
			c-3.25-2.135-4.556-4.174-1.946-7.878c1.482-2.103,2.283-2.729,4.562-1.117c14.531,10.278,29.872,19.247,45.399,27.92
			c13.799,7.708,28.409,13.703,42.714,20.328c7.069,3.274,15.652,0.417,20.357-5.956c1.562-2.116,2.801-4.471,4.188-6.714
			c-0.619,8.758-4.737,15.392-12.164,19.998c-3.939,2.443-8.093,2.77-12.41,1.117C601.793,682.019,598.227,680.644,594.661,679.273z
			"/>
		<path fill="#267EB4" d="M388,578c0.501,2.029,2.692,3.472,2.043,5.9c-0.324-0.025-0.648-0.044-0.973-0.056
			c-1.976-3.183-5.808-4.871-6.997-8.688c2.689-2.388,6.127-3.954,7.98-7.26c0.632,0.026,1.265,0.05,1.898,0.075
			c1.948,0.196,3.932,0.705,5.834,0.49c1.582-0.179,2.561,0.205,3.377,1.369c1.166,1.662-0.621,2.258-1.235,3.28
			c-0.451,0.75-1.916,1.312-0.873,2.38c0.755,0.773,1.905,0.433,2.691-0.29c1.695-1.563,3.882-1.84,5.472-0.654
			c2.281,1.701,4.614,1.465,7.067,1.39c3.528,0.012,7.056,0.025,10.585,0.037c4.756,0.254,9.116-1.352,12.328-4.516
			c3.846-3.788,6.156-8.625,4.834-14.408c0.03-1.65,0.06-3.3,0.091-4.95c2.977,3.481,2.14,7.593,1.402,11.404
			c-0.64,3.307,0.192,5.91,1.7,9.207c1.809-3.556-0.519-7.283,2.88-9.925c0,3.449,0,6.898,0,10.347
			c0.649,0.64,1.297,1.279,1.946,1.919c14.34,0.708,29.415,5.645,41.609-7.534c0.174,1.409,0.311,2.515,0.448,3.621
			c-0.019,1.285-0.038,2.569-0.058,3.853c4.504,2.225,9.262,0.618,13.893,0.919c-2.11,3.814-6.092,2.193-9.175,2.995
			c-6.969,1.812-14.053,3.203-21.124,4.598c-6.981,1.377-13.666,0.401-20.323-2.256c-8.031-3.204-15.908-4.932-24.674-0.585
			c-6.005,2.978-13.176,1.571-20.006,0.392c-5.065-0.875-9.781-5.022-15.652-1.799C393.554,580.043,390.577,577.525,388,578
			c-0.334-0.333-0.669-0.665-1.003-0.998c-0.078-0.629-0.156-1.258-0.234-1.888c-0.2,0.092-0.4,0.185-0.6,0.277
			c0.279,0.535,0.559,1.07,0.838,1.606C387.335,577.332,387.667,577.666,388,578z"/>
		<path fill="#1C4B7B" d="M454.778,682.092c-0.941-0.679-1.883-1.358-2.824-2.035c-3.407-5.73-4.143-11.696-1.653-17.979
			c0.527-1.33,2.638-2.477,0.614-4.196c6.794-7.072,6.826-7.125,14.931-2.099c8.13,5.042,16.185,10.204,24.362,15.37
			c-1.634,2.396-3.843,3.551-5.859,4.936c-2.879-0.659-4.583,1.107-6.4,2.911c-5.21,5.175-11.853,6.264-18.782,3.467
			C457.867,681.942,456.25,682.197,454.778,682.092z"/>
		<path fill="#1C4B7B" d="M491.892,682.814c0.682-0.701,1.397-1.373,2.04-2.108c3.31-3.78,6.422-4.22,10.967-1.159
			c6.83,4.601,14.34,8.192,21.548,12.234c0.239,0.134,0.345,0.506,0.509,0.769c-14.993,12.811-17.349,17.14-30.964,9.397
			c0.001,0,0.066,0.109,0.066,0.109c-0.303-0.023-0.606-0.046-0.909-0.069c-3.725-5.366-6.643-10.856-2.831-17.453
			C492.686,683.895,492.458,683.283,491.892,682.814z"/>
		<path fill="#1B2B4B" d="M382.074,575.156c1.188,3.817,5.02,5.505,6.996,8.688c-2.814,8.041-8.486,9.904-20.232,9.321
			c-9.527-0.473-13.685-7.608-19.49-12.813c-1.56-1.399-2.304-3.527,1.352-4.585c4.758-1.377,6.94-7.035,4.521-11.707
			c-1.934-3.736-0.617-5.163,2.769-6.053l0.004,0.003c0.318,2.224,1.914,2.002,3.488,1.824c1.382,0.287,3.165,0.19,2.401,2.521
			c-1.701,0.385-2.774-1.994-4.729-0.986c0,2.256,0.294,4.617-0.065,6.875c-0.64,4.024,1.501,5.567,4.857,6.504
			C369.968,576.427,376.003,576.308,382.074,575.156z"/>
		<path fill="#1C4B7B" d="M661.941,616.108c-2.912-4.547-6.902-7.817-11.93-9.722c-2.066-0.783-1.063-1.292-0.056-1.978
			c7.995-1.407,12.656-7.099,16.994-13.208c2.552-3.066,2.895-7.152,4.846-10.496c0.066,2.659,0.116,5.318,0.204,7.976
			c0.043,1.298-0.211,2.845,1.632,3.154c2.397,0.402,1.471-1.652,1.797-2.68c0.398-1.253,0.316-2.69,0.848-3.862
			c0.67-1.475,1.656-3.114,3.558-2.985c1.917,0.13,2.045,1.841,2.201,3.382c0.059,0.58,0.356,1.136,0.544,1.703
			c1.068-2.583,2.592-4.047,5.342-3.199c2.836,0.875,5.267,2.258,5.096,5.832c-6.312,7.978-15.022,12.933-23.174,18.638
			C666.922,610.708,662.521,611.48,661.941,616.108z"/>
		<path fill="#1C4B7B" d="M423.162,621.107c7.777,9.634,17.859,16.669,27.706,24.391c-2.538,2.523-4.957,4.919-8.105,6.443
			c-6.078,0.075-12.191,0.55-18.068-1.621c0,0,0.097,0.043,0.097,0.041c-0.099-0.677-0.435-1.055-1.168-0.941
			c0,0-0.263-0.018-0.258-0.02c1.068-5.441,0.292-6.462-6.378-8.39C414.841,633.072,418.372,626.894,423.162,621.107z"/>
		<path fill="#163D60" d="M721.949,508.053c0.006,0.314,0.007,0.627,0.003,0.941c-2.737,3.876-1.769,8.326-1.934,12.597
			c-0.032,0.838-0.071,1.491,1.314,1.157c2.449-0.591,1.594,1.922,2.31,2.953c0.466,0.671,0.15,1.649-0.805,2.008
			c-1.552,0.582-2.463-0.325-3.32-1.459c-0.63-0.833-1.54-1.429-2.58-0.867c-1.111,0.6-0.812,1.655-0.469,2.62
			c1.094,3.076,0.538,5.89-1.425,8.43c-0.996,1.288-1.039,2.745-1.037,4.25c0.004,6.141-0.023,12.281,0.007,18.422
			c0.008,1.591-0.424,3.491,1.988,3.889c-3.776,3.65-5.341,9.066-9.755,12.207c-0.002-0.001-0.355-0.309-0.355-0.309
			c0.011-14.953,0.029-29.907,0.032-44.86c0.002-8.855-0.004-9.131,8.963-8.989c4.45,0.07,3.929-2.492,3.693-5.086
			c-0.228-2.5,1.803-6.203-3.658-6.061c-11.292,0.293-22.595,0.121-33.894,0.14c-0.331-0.021-0.661-0.021-0.992,0.002l-0.064-0.065
			c0.36-2.068,1.845-2.288,3.359-1.691c2.907,1.145,5.89,0.703,8.838,0.703C702.102,508.985,712.053,509.336,721.949,508.053z"/>
		<path fill="#174570" d="M716,562.992c-2.412-0.398-1.981-2.298-1.988-3.889c-0.03-6.14-0.003-12.281-0.007-18.422
			c-0.001-1.505,0.042-2.961,1.037-4.25c1.963-2.539,2.519-5.353,1.425-8.43c-0.343-0.964-0.642-2.02,0.469-2.62
			c1.04-0.562,1.95,0.034,2.58,0.867c0.857,1.134,1.768,2.041,3.32,1.459c0.956-0.358,1.271-1.337,0.805-2.008
			c-0.717-1.031,0.139-3.544-2.31-2.953c-1.385,0.334-1.346-0.319-1.314-1.157c0.166-4.271-0.803-8.721,1.934-12.597
			c1.882,3.145,4.907,3.234,8.049,3.007l-0.002-0.001c-1.188,5.224,1.765,10.068,1.923,15.161c-2.129,0.3-1.734-1.122-2.112-1.88
			c-0.728-1.461-1.79-1.356-2.807-0.485c-1.026,0.878-1.316,2.216-0.011,2.899c3.309,1.734,2.666,5.243,1.647,6.898
			c-1.95,3.166,0.506,8.36-4.759,9.951c-1.133,0.342-0.002,1.676,0.594,2.407c1.324,1.626,3.476,2.684,3.536,5.175
			C724.576,556.378,719.16,558.439,716,562.992z"/>
		<path fill="#267EB4" d="M363.884,562.354c0.763-2.331-1.02-2.234-2.404-2.521c-0.23-0.629-1.19-1.187-0.191-1.935
			c0.279-0.133,0.558-0.266,0.837-0.399c-0.28-0.129-0.56-0.259-0.84-0.388c-0.661,1.898-2.173,0.676-3.292,0.898l-0.004-0.003
			c-0.069-0.249-0.104-0.503-0.104-0.762c5.558-1.107,6.124-3.415,2.036-7.36c-1.082-1.044-3.196-3.218,0.719-4.15
			c1.926-0.458,0.6-1.896-0.01-2.705c-2.542-3.372-3-7.194-2.664-11.228c0.041-0.493,0.204-1.214-0.049-1.458
			c-4.441-4.299,0.04-8.138,0.94-11.898c1.093-4.567,4.454-8.335,9.248-9.372c6.655-1.441,13.46-3.46,20.272-0.367
			c1.452,0.659,2.552,1.535,2.665,3.256l-0.321,0.376c-1.685-0.647-3.345-1.375-5.06-1.93c-13.847-4.479-26.312,1.517-25.835,18.026
			c0.198,6.869,3.545,11.917,8.294,16.366c-0.666,2.878-0.018,5.582,2.717,6.692c4.116,1.67,6.012,4.335,5.054,8.608
			c-0.973,4.339-4.691,3.822-7.933,3.967l0.057,0.014c-0.37-1.052-1.016-1.502-2.114-0.972l0.037,0.029
			c-0.002-1.71-1.007-1.393-2.045-1.014L363.884,562.354z"/>
		<path fill="#174570" d="M693.016,590.025c0.171-3.574-2.259-4.957-5.096-5.832c-2.75-0.848-4.274,0.616-5.342,3.199
			c-0.188-0.567-0.486-1.123-0.544-1.703c-0.156-1.541-0.284-3.253-2.201-3.382c-1.901-0.128-2.888,1.51-3.558,2.985
			c-0.532,1.172-0.45,2.609-0.848,3.862c-0.326,1.028,0.599,3.082-1.797,2.68c-1.843-0.309-1.589-1.856-1.632-3.154
			c-0.088-2.658-0.138-5.317-0.203-7.974c-0.005-1.527-0.012-3.055-0.018-4.584c6.798,2.206,8.985-2.737,11.146-7.984
			c1.932,2.481,0.196,5.363,1.86,7.298c1.513-0.769,1.184-1.882,1.178-2.792c-0.013-1.967,0.232-4.163,2.56-4.052
			c2.505,0.119,1.443,2.618,1.413,4.019c-0.066,3.157,1.69,3.588,4.162,3.347c2.017,0.025,4.067,0.304,5.935-0.788
			c-0.341,2.376,0.438,4.591,0.985,6.839C699.818,586.147,695.599,587.269,693.016,590.025z"/>
		<path fill="#9EB2C6" d="M661.9,635.737c-0.079-1.118-0.563-1.824-1.795-1.771c1.268-3.891,2.535-7.781,3.802-11.668
			C665.191,627.072,664.222,631.506,661.9,635.737z"/>
		<path fill="#163D60" d="M701.018,582.01c-0.547-2.248-1.326-4.463-0.986-6.839c1.952-0.093,3.905-0.187,5.857-0.28
			c0,0,0.354,0.308,0.355,0.309C705.874,578.522,703.435,580.258,701.018,582.01z"/>
		<path fill="#174570" d="M416.988,641.01c6.67,1.928,7.446,2.949,6.378,8.39c-2.113-0.937-2.107-3.902-4.439-4.627
			C417.803,643.765,416.644,642.775,416.988,641.01z"/>
		<path fill="#CFDAE5" d="M495.148,701.987c0.303,0.023,0.606,0.046,0.909,0.069C495.754,702.033,495.451,702.01,495.148,701.987z"
			/>
		<path fill="#174570" d="M629.009,510.021c1.507,2.272,5.947,1.262,5.729,6.079c1.105-4.47,3.96-4.174,6.799-4.119
			c4.15,0.08,8.304,0.015,12.456,0.012c0,0,0.051,0.056,0.05,0.055c-0.01,14.969-0.02,29.939-0.03,44.909
			c-1.588-0.399-3.177-0.797-4.765-1.196l-0.049-0.007c-0.441-1.583-1.688-1.862-3.081-1.904l-0.012,0.027
			c-0.868-1.539-2.344-1.972-3.949-2.168c-2.884-2.355-6.166-3.934-9.718-4.989c-1.179-2.004-3.142-2.588-5.254-2.902
			c-0.38-0.575-0.76-1.149-1.139-1.724c1.401-3.828,2.665-7.678,2.032-11.859c-0.047-0.312-0.026-0.769,0.163-0.962
			c3.051-3.113,0.659-5.052-1.233-7.5c-1.801-2.331-0.824-6.3-4.321-7.857c-0.845-0.376-1.55-0.453-2.303,0.073
			c-0.344,0.008-0.52-0.159-0.529-0.503c-0.024-2.625,1.275-3.736,3.882-3.55C625.488,510.06,627.251,509.999,629.009,510.021z"/>
		<path fill="#174570" d="M680.034,510.037c0.331-0.022,0.661-0.023,0.992-0.002c0.053,3.618,0.106,7.235,0.159,10.853
			c-2.611,0.027-1.088-1.787-1.219-2.821c-0.129-1.018-0.542-2.667-1.347-2.219c-5.875,3.277-3.69-2.906-5.612-5.165
			c0,20.193,0.017,39.658-0.029,59.122c-0.004,1.743,0.697,3.706-1.002,5.153c0.053-20.619,0.075-41.238,0.205-61.857
			c0.015-2.398-0.766-3.314-3.131-3.102c-1.485,0.133-3.023,0.214-4.482-0.021c-3.827-0.618-4.627,0.968-4.586,4.63
			c0.171,15.127-0.017,30.258-0.073,45.388c-1.577-0.131-2.867-0.824-3.912-1.997c-0.004-13.69,0.03-27.381-0.057-41.071
			c-0.011-1.746,1.067-4.175-1.897-4.879c0,0-0.051-0.056-0.051-0.056c-0.643-1.31-1.557-2.562-1.852-3.946
			c-0.287-1.347-0.556-3.8,1.282-3.69c4.21,0.251,5.08-2.538,7.029-5.255c1.81-2.523,6.049-1.728,8.896-1.526
			c13.622,0.968,27.236,0.006,40.841,0.451c1.695,0.055,3.596-0.689,5.247,0.904c-1.495,2.176-4.283,0.038-6.062,2.292
			c4.985,1.053,9.762,2.288,12.576,6.83c-9.897,1.284-19.847,0.933-29.783,0.932c-2.948,0-5.931,0.442-8.838-0.703
			c-1.513-0.596-2.999-0.377-3.359,1.692c-0.614,0.12-1.323,0.143-1.436,0.948c-0.023,0.163,0.365,0.561,0.525,0.541
			C679.87,511.362,679.881,510.635,680.034,510.037z M665.587,507.931c0.056-0.008,0.951,0.131,1.315-0.245
			c1.512-1.56,5.41-1.896,4.385-4.529c-1.167-2.998-3.105,0.46-4.775,0.663c-0.655,0.079-1.344,0.009-1.967,0.185
			c-1.37,0.389-3.949-1.111-3.845,1.506C660.781,507.519,663.012,508.039,665.587,507.931z"/>
		<path fill="#CFDAE5" d="M558.231,466.227c2.8-1.143,3.887,1.255,5.246,2.72c8.484,9.147,17.838,17.235,29,22.904
			c6.242,3.17,12.914,5.396,19.957,6.213c3.776,2.352,8.124,2.521,12.305,2.724c4.863,0.236,7.006,2.158,6.185,7.044
			c-2.233,1.367-4.714,1.385-7.203,1.295c-6.789-0.247-13.198-2.401-19.726-3.956c-7.318-3.107-14.637-6.214-21.956-9.321
			c-0.347-1.274-1.525-1.714-2.456-2.359c-7.691-5.326-14.839-11.265-21.054-18.291c-1.327-1.5-2.888-2.835-2.55-5.14
			C557.053,468.973,558.158,467.903,558.231,466.227z"/>
		<path fill="#1F2C51" d="M558.231,466.227c-0.073,1.676-1.178,2.745-2.252,3.832c-4.896,5.755-11.024,10.009-17.246,14.149
			c-9.263-9.409-8.614-19.755,1.918-30.555C547.223,453.183,558.134,460.988,558.231,466.227z"/>
		<path fill="#163D60" d="M603.994,505.172c6.528,1.555,12.938,3.709,19.726,3.956c2.489,0.091,4.971,0.072,7.203-1.295
			c0.344,0.712,0.687,1.423,1.031,2.135c-0.982,0.018-1.964,0.035-2.946,0.053c-1.757-0.022-3.521,0.04-5.271-0.085
			c-2.607-0.186-3.906,0.925-3.882,3.55c-6.835-4.779-14.651-3.392-22.207-3.459c-8.976-0.08-8.977-0.003-8.432,8.885
			c-0.144,0.976-0.289,1.952-0.433,2.928c-0.349-0.846-0.699-1.693-1.048-2.539c0.081-2.324,0.347-4.66,0.199-6.97
			c-0.203-3.174,0.9-4.611,4.237-4.394c3.147,0.204,6.324-0.086,9.473,0.096C603.999,508.168,604.632,507.294,603.994,505.172z"/>
		<path fill="#174570" d="M631.955,509.967c-0.344-0.712-0.687-1.423-1.031-2.135c0.821-4.886-1.322-6.809-6.185-7.044
			c-4.181-0.203-8.529-0.372-12.305-2.724c5.97-0.078,12.163-2.06,17.663,1.95c2.722,1.984,4.22,4.64,4.455,8.089
			C634.711,510.427,633.149,509.817,631.955,509.967z"/>
		<path fill="#174570" d="M730.001,512.001c0-2.08,0-4.161,0-6.241c0.519,0.04,1.038,0.08,1.557,0.12
			c0.13,2.101,2.093,4.376-1.558,6.12L730.001,512.001z"/>
		<path fill="#1C4B7B" d="M538.734,484.208c6.222-4.14,12.35-8.394,17.246-14.149c-0.339,2.305,1.222,3.64,2.549,5.141
			c6.215,7.026,13.364,12.966,21.054,18.291c0.93,0.644,2.109,1.085,2.456,2.359c0.164,3.145-0.99,5.845-4.433,4.716
			c-6.014-1.971-6.607,3.635-9.534,5.965c-4.323-2.02-7.525-5.823-12.027-7.557c0,0-0.022,0.003-0.022,0.003
			c-0.34-0.308-0.681-0.615-1.021-0.923c-0.165-0.176-0.368-0.275-0.608-0.295c-0.996-1.799-2.427-3.081-4.41-3.704
			C546.416,490.564,541.381,488.75,538.734,484.208z"/>
		<path fill="#CFDAE5" d="M666.949,591.2c-4.338,6.109-8.999,11.801-16.994,13.208c-6.966-0.253-12.353-4.497-18.296-7.299
			c-4.633-2.184-9.133-4.651-13.692-6.992c-4.873-2.744-9.745-5.487-14.62-8.231c-3.178-2.237-6.354-4.475-9.53-6.713
			c8.109-0.585,8.11-0.585,8.109-8.873c0-2.634-0.2-5.286,0.053-7.895c0.217-2.232-1.169-4.753,1.011-6.688
			c-0.003,5.394-0.006,10.789-0.009,16.183c-1.317,5.845,3.526,6.42,6.992,8.174c9.592,5.97,19.989,10.403,29.912,15.714
			c9.292,4.973,17.862,6.882,26.573-0.594C666.552,591.115,666.783,591.195,666.949,591.2z"/>
		<path fill="#2E8BC6" d="M587.574,593.257c-0.259,0.1-0.582,0.339-0.759,0.259c-0.181-0.082-0.219-0.479-0.319-0.737
			c0.259-0.1,0.58-0.339,0.76-0.259C587.435,592.599,587.474,592.997,587.574,593.257z"/>
		<path fill="#F5F8F8" d="M450.05,575.051c-0.649-0.64-1.297-1.279-1.946-1.918c2.746-0.364,2.766-2.598,2.765-4.491
			c-0.001-14.958-0.109-29.916-0.185-44.874c0.142-4.569,0.284-9.138,0.426-13.708c0.34,0.052,0.661-0.004,0.963-0.168
			c6.1,0.033,12.201,0.011,18.3,0.113c6.583,0.111,12.267,2.086,15.849,8.113c0.937,4.223,1.708,8.433,0.744,12.792
			c-0.997,4.506-3.335,7.899-7.977,9.659c8.911,5.199,11.574,12.029,8.951,22.107c-2.155,8.279-7.952,12.203-17.988,12.232
			C463.317,574.926,456.683,575.001,450.05,575.051z M463.014,528.988c0.487,2.389-2.154,5.908,1.885,6.933
			c2.241,0.568,4.98,0.813,7.142-1.014c4.215-4.649,3.824-10.244-0.95-13.622c-0.973-0.157-1.954-0.276-2.917-0.478
			c-4.449-0.935-6.087,0.941-5.342,5.27c0.112,0.65,0.114,1.32,0.167,1.98C462.853,528.369,462.858,528.68,463.014,528.988z
			 M462.853,555.332c0,1.495,0.169,3.013-0.034,4.48c-0.483,3.504,0.865,4.529,4.383,4.404c7.217-0.256,11.595-7.688,7.732-14.061
			c-2.174-3.587-5.977-4.6-9.993-3.889c-4.02,0.712-1.388,4.041-2.045,6.092C462.606,553.261,462.847,554.335,462.853,555.332z"/>
		<path fill="#F5F8F8" d="M492.05,574.991c0.019-1.284,0.038-2.569,0.057-3.853c4.067-12.826,6.803-25.997,9.934-39.059
			c1.574-6.566,4.319-12.96,3.862-19.937c1.934-2.739,4.811-2.474,7.614-2.344c3.783,0.175,7.602-0.497,11.35,0.475
			c1.169,4.595,2.337,9.19,3.505,13.784c3.11,12.833,6.323,25.644,9.272,38.515c0.94,4.105,2.988,8.041,2.332,12.454
			c0,0,0.045-0.026,0.045-0.026c-2.328-0.021-4.683-0.277-6.978-0.01c-3.811,0.443-6.087-0.628-6.142-4.845
			c-0.01-0.783-0.527-1.559-0.811-2.338c-0.469-2.898-0.518-5.898-2.081-8.528c-5.396-0.207-10.848-1.676-16.126,0.729
			c-1.125,2.854-1.792,5.809-1.969,8.873c-0.466,5.759-4.068,6.796-8.979,6.101C495.339,574.758,493.68,574.976,492.05,574.991z
			 M516.466,522.839c-0.393,0.448-0.729,0.655-0.79,0.925c-1.198,5.323-2.317,10.664-3.548,15.979
			c-1.994,8.612-2.028,8.489,6.773,8.112c2.661-0.114,2.971-0.954,2.419-3.274C519.623,537.432,518.105,530.241,516.466,522.839z"/>
		<path fill="#F5F8F8" d="M424.87,575.972c-3.528-0.012-7.056-0.024-10.586-0.037c-5.488-2.191-10.663-4.749-12.826-10.864
			c-0.595-2.729-1.191-5.458-1.786-8.188c0.013-13.985,0.322-27.979-0.093-41.951c-0.189-6.361,3.795-4.619,7.136-4.979
			c3.835-0.413,5.624,0.428,5.493,4.975c-0.36,12.48-0.178,24.976-0.163,37.466c0.002,1.967-0.356,4.019,0.8,5.842
			c0.143,0.582,0.286,1.164,0.429,1.747c0.88,3.214,3.045,4.967,6.31,5.101c3.537,0.145,5.727-1.785,6.814-5.069
			c0.228-0.627,0.456-1.254,0.684-1.881c1.288-2.678,0.736-5.541,0.748-8.321c0.048-11.267,0.323-22.549-0.172-33.796
			c-0.235-5.336,1.633-6.716,6.41-6.066c1.955,0.266,3.971,0.079,5.958,0.098c0.149,0.694,0.3,1.388,0.449,2.082
			c-0.532,5.308-0.53,10.618-0.031,15.928c-0.077,8.256-0.215,16.513-0.216,24.769C440.228,563.974,436.176,572.363,424.87,575.972z
			"/>
		<path fill="#F5F8F8" d="M558.781,573.931c-1.256,3.328-4.104,1.666-6.279,1.908c-2.076,0.231-4.197,0.046-6.298,0.045
			c-0.072-0.28-0.185-0.544-0.339-0.79c0.136-21.006,0.458-42.013-0.201-63.017c0.121-0.675,0.242-1.351,0.363-2.026
			c7.568,0.002,15.136,0.004,22.705,0.005c1.602,1.141,3.474,1.495,5.351,1.831l0.029,0.018c0.322,0.834,0.868,1.325,1.823,1.185
			c0,0-0.002,0.006-0.002,0.006c0.243,0.324,0.487,0.647,0.731,0.971c2.541,2.933,3.847,6.51,5.235,10.044
			c0,0-0.072,0.005-0.071,0.004c0.701,11.157-0.41,21.481-12.348,26.819c-3.613,0.619-7.711-0.613-10.599,2.776l-0.089,0.292
			C557.627,560.644,557.707,567.287,558.781,573.931z M558.685,531.183c0,2.149,0.218,4.326-0.049,6.442
			c-0.443,3.504,1.162,3.901,4.012,3.202c3.882-0.952,5.991-3.446,6.324-7.292c0.37-4.277,0.839-8.693-3.333-11.728
			c-1.756-1.278-3.832-1.346-5.706-0.833c-2.246,0.615-1.065,2.786-1.213,4.262C558.524,527.2,558.672,529.199,558.685,531.183z"/>
		<path fill="#2871A1" d="M427.082,558.135c-0.228,0.627-0.456,1.254-0.684,1.881c-4.382,2.917-8.756,2.399-13.125-0.032
			c-0.143-0.582-0.286-1.165-0.429-1.747c0.091-11.384,0.181-22.768,0.271-34.153c1.824-0.059,2.386,1.4,3.319,2.561
			c0.964,1.2,1.383,3.51,3.426,3.071c2.196-0.472,3.719-2.17,4.079-4.485c0.327-2.101,1.602-3.55,2.892-5.042
			C426.914,532.838,426.998,545.487,427.082,558.135z"/>
		<path fill="#377192" d="M505.902,512.143c0.457,6.977-2.288,13.371-3.862,19.937c-3.13,13.061-5.867,26.233-9.934,39.059
			c-0.136-1.107-0.273-2.213-0.448-3.622c-12.194,13.179-27.269,8.242-41.609,7.534c6.634-0.05,13.267-0.124,19.901-0.144
			c10.036-0.029,15.833-3.952,17.988-12.232c2.623-10.078-0.04-16.908-8.951-22.107c4.642-1.76,6.98-5.153,7.977-9.659
			c0.964-4.359,0.194-8.569-0.744-12.793c4.679,1.523,3.602,5.471,3.748,8.903c-0.088,1.981,0.622,4.66-0.398,5.823
			c-5.005,5.71-0.636,10.016,1.358,14.716c2.649-0.782-0.553-5.414,2.667-4.553c4.665,1.247,4.482-1.602,4.311-4.112
			c-0.275-4.018,1.022-7.46,3.045-10.663c0.881-1.395,1.048-2.719,1.063-4.205c-0.84-4.241,2.924-7.664,2.116-11.9
			C504.721,512.132,505.312,512.137,505.902,512.143z"/>
		<path fill="#174570" d="M568.071,506.532c2.927-2.33,3.521-7.936,9.534-5.965c3.444,1.129,4.598-1.571,4.433-4.716
			c7.319,3.107,14.637,6.214,21.956,9.321c0.638,2.122,0.005,2.996-2.35,2.86c-3.149-0.182-6.327,0.108-9.473-0.096
			c-3.337-0.216-4.44,1.221-4.237,4.394c0.147,2.31-0.118,4.646-0.198,6.969c-1.91-1.037-3.821-2.073-5.732-3.108
			c-1.02-0.725-2.039-1.449-3.059-2.174c-0.775-1.057-1.81-1.262-3.013-0.92c0,0,0.002-0.006,0.002-0.006
			c-0.302-0.866-0.92-1.244-1.823-1.185c0,0-0.029-0.018-0.029-0.018c-0.051-1.302-0.796-1.866-2.029-1.913
			C571.498,507.934,569.085,508.042,568.071,506.532z M581.966,502.718c0.115-0.062,0.23-0.124,0.345-0.186
			c-0.098-0.084-0.19-0.226-0.295-0.237c-0.107-0.01-0.227,0.108-0.342,0.171C581.772,502.55,581.869,502.634,581.966,502.718z"/>
		<path fill="#267EB4" d="M546.027,510.052c-0.121,0.675-0.242,1.351-0.362,2.026c-1.328,2.201-0.331,4.649-0.741,6.948
			c-2.204,3.496,0.138,7.701-1.769,11.834c-1.255-1.294-1.848-3.458-3.828-2.605c-2.032,0.875-1.35,2.847-1.277,4.35
			c0.15,3.103-0.49,4.888-4.048,3.375c-1.658-3.886-3.277-7.775-4.074-11.967c-0.45-2.365-1.034-0.137-1.556,0.046
			c-1.168-4.595-2.337-9.191-3.505-13.786c2.29-1.159,6.315,1.051,7.067,3.962c0.267,1.035-0.115,2.259,1.26,3.605
			C534.993,510.682,541.31,511.823,546.027,510.052z"/>
		<path fill="#267EB4" d="M489.969,527.021c-0.146-3.433,0.931-7.38-3.748-8.903c-3.581-6.026-9.265-8.001-15.848-8.112
			c-6.099-0.103-12.2-0.081-18.3-0.113c0.862-1.79,2.469-1.871,4.159-1.887c1.575-0.014,3.435,0.379,3.773-2.01l-0.009,0.01
			c5.626,0.827,11.188,2.461,16.973,1.214c1.922-0.414,3.577,0.165,4.784,1.802c2.223,3.014,4.298,6.403,8.878,3.586
			c2.059,3.614,6.408-3.317,8.274,1.774c0.138,0.378,0.934-0.597,1.242-1.145c0.957-1.701,2.555-1.098,3.982-1.11
			c0.81,4.237-2.955,7.66-2.115,11.901c-1.952,0.416-4.769-1.204-5.727,1.43C494.8,529.549,492.392,527.845,489.969,527.021z"/>
		<path fill="#267EB4" d="M426.831,520.189c-1.29,1.491-2.565,2.94-2.892,5.042c-0.36,2.315-1.883,4.013-4.079,4.485
			c-2.043,0.439-2.462-1.871-3.426-3.071c-0.932-1.161-1.495-2.62-3.319-2.561c0.001-3.416,0.001-6.834,0.001-11.273
			c3.04,2.782,5.458,4.822,8.496,6.177c0.127-0.409,0.388-0.826,0.357-1.221c-0.2-2.62,0.985-5.308,3.286-5.232
			c3.169,0.105,1.185,3.37,1.657,5.195C427.11,518.493,426.871,519.367,426.831,520.189z"/>
		<path fill="#267EB4" d="M440.476,512.133c-0.15-0.694-0.3-1.389-0.45-2.083c3.694,1.741,7.389-0.301,11.083,0.009
			c-0.142,4.569-0.284,9.139-0.426,13.71c-1.151-0.721-0.072-2.727-1.868-3.17c-1.941,1.848,0.325,4.841-2.259,7.249
			c-0.22-4.06-0.455-7.895-5.434-7.813C440.662,517.421,441.64,514.69,440.476,512.133z"/>
		<path fill="#267EB4" d="M391.043,511.963c1.339-2.011,4.41,4.484,5.035-1.025c1.949,1.021,1.984,2.817,1.961,4.686
			c-0.055,4.447-0.056,8.894-0.079,13.342c-3.569,2.245-7.017,3.248-9.957-0.97l-0.008,0.01c1.767-0.215,4.276,0.855,5.151-0.704
			c1.192-2.124-1.931-2.56-2.744-4.024c-0.544-0.98-0.813-2.114-1.205-3.178c0.009-2.684,3.483-4.689,1.523-7.76L391.043,511.963z
			 M395.078,523.402c0.787-0.254,0.875-0.897,0.809-1.567c-0.069-0.69-0.334-1.393-1.178-1.123c-0.3,0.096-0.518,0.812-0.559,1.264
			C394.09,522.62,394.147,523.336,395.078,523.402z M394.404,515.747c-0.046,0.127-0.092,0.254-0.138,0.38
			c0.112,0.039,0.291,0.141,0.323,0.106c0.084-0.091,0.105-0.241,0.151-0.368C394.628,515.826,394.516,515.786,394.404,515.747z"/>
		<path fill="#377192" d="M397.96,528.965c0.023-4.447,0.024-8.895,0.079-13.341c0.023-1.869-0.012-3.665-1.961-4.686
			c3.985-2.015,2.738,1.463,2.753,2.882c0.136,12.416,0.097,24.833,0.172,37.25c0.012,1.946-0.478,3.987,0.669,5.816
			c0.595,2.728,1.191,5.457,1.787,8.187c-3.357-1.201-3.422-4.09-3.438-6.91C397.965,548.429,397.975,538.697,397.96,528.965z"/>
		<path fill="#267EB4" d="M460.005,505.995c-2.425-0.225-4.987,0.493-7.229-1c2.565-0.752,5.285-2.565,7.22,1.01
			C459.996,506.005,460.005,505.995,460.005,505.995z"/>
		<path fill="#3495D1" d="M554.392,497.759c0.241,0.021,0.443,0.119,0.608,0.295c0.34,0.307,0.681,0.615,1.021,0.923
			c0,0,0.022-0.003,0.022-0.003c-0.531,0.312-1.044,0.844-1.596,0.887c-0.99,0.077-2.631,0.656-2.704-0.852
			C551.672,497.526,553.488,498.21,554.392,497.759z"/>
		<path fill="#2871A1" d="M572.053,509.975c1.233,0.048,1.979,0.612,2.029,1.913c-1.877-0.336-3.748-0.69-5.351-1.831
			C569.839,510.03,570.946,510.002,572.053,509.975z"/>
		<path fill="#2871A1" d="M534.001,535.98c3.558,1.512,4.198-0.273,4.048-3.375c-0.073-1.503-0.755-3.475,1.277-4.35
			c1.981-0.853,2.573,1.31,3.828,2.605c1.907-4.133-0.435-8.338,1.77-11.834c0.038,16.941,0.058,33.882,0.141,50.823
			c0.009,1.76-0.634,3.68,0.8,5.246c0.154,0.246,0.267,0.509,0.339,0.79c-2.054,0.346-3.72-0.559-5.331-1.635
			c0.497-2.348,2.695-4.701-0.353-7.042c-0.645-0.495-0.191-2.243-0.562-3.302c-1.51-4.312-1.536-8.926-2.658-13.255
			C536.039,545.785,534.992,540.895,534.001,535.98z"/>
		<path fill="#267EB4" d="M585.998,573.002c-3.24-0.407-5.97-2.5-7.967-4.428c-2.766-2.67-6.493-2.013-9.221-4.184
			c-1.135-0.903-2.573-0.009-2.724,1.708c-0.115,1.31-0.1,2.636-0.072,3.953c0.072,3.29-0.608,5.093-4.026,2.272
			c-0.428-0.353-1.268-0.207-1.918-0.293c-0.001-3.823-0.012-7.646,0.006-11.469c0.005-1.03,0.186-2.056,1.394-2.336
			c0.823-0.191,1.957-0.179,2.116,0.757c0.723,4.252,3.029,0.959,4.607,1.052c5.969,4.325,12.941,7.189,18.247,12.487
			C586.292,572.681,586.145,572.842,585.998,573.002z"/>
		<path fill="#267EB4" d="M526.016,575.919c-0.17,0.444-0.339,0.888-0.509,1.332c-5.427-2.196-11.132-0.845-16.695-1.295
			c-1.315-0.107-1.81-1.306-2.745-1.912c-0.006-0.668-0.011-1.336-0.016-2.004c5.085-3.633,10.393-5.461,16.499-2.398
			c0.947,0.475,2.257,0.227,3.399,0.313C525.971,571.944,525.994,573.931,526.016,575.919z"/>
		<path fill="#377192" d="M534.001,535.98c0.99,4.915,2.037,9.805,3.298,14.671c1.122,4.329,1.148,8.942,2.658,13.255
			c0.371,1.059-0.082,2.807,0.562,3.302c3.048,2.341,0.85,4.693,0.353,7.042c-0.299,0.252-0.598,0.515-0.898,0.778
			c0.656-4.413-1.392-8.349-2.333-12.454c-2.949-12.872-6.162-25.683-9.272-38.515c0.523-0.182,1.107-2.41,1.557-0.044
			C530.724,528.205,532.344,532.094,534.001,535.98z"/>
		<path fill="#267EB4" d="M593.818,575.174c3.176,2.238,6.352,4.476,9.53,6.713c-3.88,0.656-7.181-0.288-9.815-3.369
			c-1.309-1.531-2.841-2.73-5.107-2.574c-2.031,0.14-2.46-1.263-2.429-2.942c0.147-0.161,0.295-0.321,0.437-0.476
			c1.78-0.107,2.395,1.675,3.72,2.306C591.376,574.946,592.597,575.06,593.818,575.174z"/>
		<path fill="#377192" d="M568.195,560.034c-1.58-0.093-3.886,3.2-4.609-1.052c-0.159-0.936-1.293-0.948-2.116-0.757
			c-1.208,0.28-1.389,1.306-1.394,2.336c-0.018,3.823-0.007,7.646-0.006,11.469c-0.292,0.234-0.585,0.468-0.878,0.704
			c-0.134-6.243-0.267-12.487-0.4-18.732c0,0,0.089-0.292,0.089-0.291C562.561,554.972,565.234,557.716,568.195,560.034z"/>
		<path fill="#377192" d="M526.016,575.919c-0.023-1.988-0.045-3.975-0.067-5.962c0.047-0.716,0.094-1.432,0.141-2.148
			c0.283,0.779,0.8,1.555,0.81,2.338c0.055,4.217,2.331,5.288,6.142,4.845c2.294-0.267,4.65-0.011,6.978,0.01
			C535.494,577.461,530.685,575.621,526.016,575.919z"/>
		<path fill="#377192" d="M506.051,572.041c0.005,0.668,0.01,1.335,0.016,2.004c-0.041,0.623-0.082,1.245-0.124,1.866
			c-4.632-0.302-9.39,1.306-13.894-0.919c1.631-0.015,3.29-0.234,4.886-0.008c4.911,0.695,8.513-0.342,8.979-6.101
			C505.96,569.935,506.006,570.988,506.051,572.041z"/>
		<path fill="#9EB2C6" d="M558.792,554.002c0.133,6.245,0.266,12.489,0.4,18.732c-0.136,0.399-0.273,0.801-0.41,1.199
			C557.707,567.287,557.627,560.644,558.792,554.002z"/>
		<path fill="#174570" d="M454.778,682.092c1.471,0.105,3.088-0.15,4.39,0.375c6.929,2.796,13.572,1.707,18.782-3.467
			c1.817-1.804,3.521-3.571,6.4-2.911c-2.923,2.412-5.815,4.863-8.776,7.227C468.521,688.948,461.47,688.515,454.778,682.092z"/>
		<path fill="#174570" d="M424.695,650.321c5.876,2.171,11.99,1.696,18.068,1.621C436.303,656.663,430.961,656.183,424.695,650.321z
			"/>
		<path fill="#174570" d="M423.624,649.42c0.733-0.114,1.069,0.264,1.168,0.941C424.403,650.049,424.014,649.735,423.624,649.42z"/>
		<path fill="#F5F8F8" d="M390.721,512.339c1.96,3.071-1.514,5.075-1.523,7.759c-1.537,4.096-4.019,1.654-6.271,0.919
			c-3.347-1.093-7.044-2.432-9.353,1.329c-2.25,3.667-1.719,7.609,1.145,10.993c0.939,1.11,1.863,2.33,3.441,2.649
			c0.581,0.463,1.162,0.927,1.744,1.39c0.311,0.254,0.621,0.508,0.932,0.763c1.584,1.09,3.169,2.181,4.753,3.271l0.054,0.136
			c0.485,1.099,1.295,1.877,2.366,2.397l0.034,0.047c4.78,7.622,5.241,15.607,2.011,23.903c-1.854,3.307-5.292,4.873-7.981,7.261
			c-6.07,1.152-12.106,1.271-18.127-0.409c-3.356-0.937-5.497-2.48-4.857-6.504c0.359-2.257,0.065-4.618,0.065-6.875
			c1.955-1.008,3.028,1.371,4.729,0.986c0.001,0,0.011-0.23,0.011-0.231c0.236,1.235,1.112,1.181,2.045,1.014
			c0,0-0.037-0.029-0.037-0.03c0.273,1.261,1.279,0.93,2.114,0.973c0,0-0.057-0.014-0.057-0.014
			c3.674,1.688,7.696,2.233,10.182-1.258c2.477-3.478,1.75-7.645-1.087-11.005c-2.473-2.929-5.661-5.043-8.934-7.003
			c-4.748-4.448-8.095-9.497-8.294-16.366c-0.477-16.508,11.988-22.505,25.835-18.026
			C387.377,510.964,389.036,511.691,390.721,512.339z"/>
		<path fill="#2871A1" d="M378.161,535.988c-1.579-0.319-2.502-1.539-3.441-2.649c-2.864-3.384-3.395-7.326-1.145-10.993
			c2.308-3.761,6.006-2.422,9.353-1.329c2.252,0.735,4.735,3.177,6.271-0.919c0.392,1.065,0.661,2.198,1.205,3.179
			c0.812,1.464,3.936,1.9,2.744,4.024c-0.875,1.559-3.383,0.489-5.151,0.704c-0.013-1.556-0.156-3.04-2.284-2.882
			c-0.892,0.066-1.682,0.603-1.407,1.538c0.583,1.981,2.375,1.112,3.699,1.335c2.94,4.218,6.388,3.215,9.957,0.97
			c0.014,9.732,0.005,19.464,0.06,29.196c0.016,2.821,0.081,5.71,3.438,6.91c2.163,6.114,7.338,8.673,12.825,10.863
			c-2.452,0.075-4.785,0.311-7.066-1.39c-1.59-1.186-3.776-0.908-5.472,0.654c-0.785,0.724-1.935,1.064-2.691,0.29
			c-1.043-1.068,0.422-1.629,0.873-2.38c0.614-1.022,2.401-1.619,1.235-3.28c-0.817-1.164-1.795-1.549-3.377-1.369
			c-1.902,0.215-3.886-0.294-5.834-0.489c3.566-5.375,2.228-11.491,1.596-17.097c-0.205-1.82-0.294-7.408-5.505-6.883
			c0,0-0.034-0.047-0.034-0.047c-0.607-0.978,1.562-4.696-2.366-2.398c0,0-0.054-0.136-0.051-0.138
			c0.934-4.759-2.553-3.078-4.756-3.268c-0.311-0.254-0.621-0.508-0.932-0.763C379.751,536.378,379.034,536.084,378.161,535.988z
			 M381.275,522.534c-1.795-0.059-3.78-1.534-4.925,0.71c-0.508,0.996,0.232,2.029,1.226,2.329
			C379.905,526.276,380.501,524.333,381.275,522.534z"/>
		<path fill="#2871A1" d="M441.124,520.036c4.978-0.082,5.213,3.753,5.433,7.813c2.584-2.408,0.318-5.4,2.259-7.249
			c1.797,0.442,0.718,2.448,1.868,3.17c0.075,14.956,0.184,29.914,0.185,44.872c0,1.893-0.019,4.126-2.765,4.491
			c0.001-3.45,0.001-6.899,0.001-10.348c-3.399,2.642-1.071,6.369-2.88,9.925c-1.508-3.298-2.34-5.9-1.7-9.207
			c0.738-3.811,1.575-7.923-1.403-11.405c-0.037-3.471,0.108-6.955-0.152-10.408c-0.342-4.529,1.142-9.186-0.919-13.592
			l-0.099-0.138C441.008,525.319,441.066,522.677,441.124,520.036z"/>
		<path fill="#2871A1" d="M424.87,575.972c11.306-3.609,15.359-11.997,15.36-23.142c0.001-8.256,0.139-16.513,0.216-24.769
			c0.177,0.01,0.346-0.023,0.506-0.1c0,0,0.099,0.138,0.099,0.137c-0.024,7.108-0.151,14.219-0.015,21.325
			c0.049,2.542-0.969,5.308,0.997,7.627c1.322,5.783-0.988,10.62-4.834,14.408C433.986,574.62,429.625,576.226,424.87,575.972z"/>
		<path fill="#377192" d="M388.043,543.992c5.211-0.525,5.299,5.062,5.505,6.883c0.632,5.606,1.97,11.722-1.596,17.097
			c-0.633-0.025-1.266-0.049-1.899-0.075C393.284,559.599,392.823,551.614,388.043,543.992z"/>
		<path fill="#377192" d="M442.032,557.049c-1.966-2.319-0.948-5.084-0.997-7.627c-0.137-7.106-0.009-14.217,0.015-21.325
			c2.061,4.407,0.577,9.064,0.919,13.593c0.261,3.453,0.116,6.937,0.152,10.408C442.092,553.749,442.062,555.399,442.032,557.049z"
			/>
		<path fill="#2E8BC6" d="M387.002,576.998c-0.279-0.535-0.559-1.07-0.838-1.606c0.2-0.093,0.4-0.185,0.6-0.277
			c0.078,0.629,0.156,1.258,0.234,1.888C386.997,577.002,387.002,576.998,387.002,576.998z"/>
		<path fill="#2E8BC6" d="M388,578c-0.333-0.334-0.665-0.668-0.998-1.002c0,0-0.005,0.004-0.005,0.004
			C387.331,577.335,387.666,577.667,388,578z"/>
		<path fill="#1F2C51" d="M357.994,558.009c1.118-0.222,2.631,1,3.296-0.9c-0.216,0.261-0.218,0.524-0.001,0.789
			c-0.999,0.748-0.039,1.306,0.191,1.935C359.909,560.011,358.312,560.233,357.994,558.009z"/>
		<path fill="#2E8BC6" d="M666.949,591.2c-0.166-0.005-0.396-0.086-0.49-0.006c-8.711,7.476-17.281,5.567-26.573,0.594
			c-9.923-5.311-20.321-9.744-29.912-15.714c0.023-2.795-0.504-5.856,3.679-6.3c1.038-0.11,1.028-1.14,0.73-1.98
			c-0.705-1.99,0.576-2.912,1.847-4.113c2.913-2.752,6.573-4.443,9.656-7.042c2.659-2.241,4.023-2.523,1.16-5.482
			c-1.999-2.066-1.341-3.973,1.934-4.158c1.155-0.065,2.306-0.185,3.459-0.28c3.551,1.055,6.834,2.634,9.717,4.99
			c0.083,2.972,2.239,2.164,3.95,2.167c0,0,0.012-0.027,0.011-0.026c0.035,2.242,1.466,2.222,3.082,1.903
			c0,0,0.049,0.007,0.047,0.009c0.304,5.835,0.304,5.835-4.395,6.5c-1.134-0.251-2.257-0.576-3.403-0.741
			c-5.339-0.766-8.643,2.195-8.581,7.562c0.031,2.681,0.791,5.156,3.266,6.278c3.768,1.71,7.44,1.089,10.643-1.671
			c4.48,0.737,8.96,1.475,13.439,2.212c3.602-0.291,7.296,0.708,10.812-0.779c0.25,0.332,0.5,0.664,0.75,0.996
			c0.007,1.529,0.013,3.057,0.019,4.584C669.844,584.048,669.501,588.134,666.949,591.2z"/>
		<path fill="#F5F8F8" d="M681.185,520.888c-0.053-3.618-0.106-7.236-0.159-10.853c11.298-0.019,22.602,0.153,33.893-0.14
			c5.46-0.142,3.43,3.561,3.658,6.061c0.237,2.594,0.757,5.156-3.693,5.086c-8.967-0.142-8.961,0.133-8.963,8.989
			c-0.003,14.953-0.021,29.907-0.032,44.86c-1.953,0.093-3.905,0.187-5.857,0.28c-1.868,1.092-3.919,0.812-5.935,0.788
			c-1.372-1.801-0.456-4.037-1.137-5.97c0.09-12.754,0.208-25.509,0.26-38.263c0.046-11.178,0.013-11.178-11.166-10.616
			C681.806,520.875,681.516,520.801,681.185,520.888z"/>
		<path fill="#377192" d="M368.12,544.801c3.273,1.96,6.462,4.073,8.934,7.003c2.836,3.36,3.563,7.527,1.087,11.005
			c-2.486,3.491-6.508,2.947-10.182,1.258c3.242-0.145,6.961,0.372,7.933-3.967c0.958-4.273-0.938-6.938-5.054-8.608
			C368.102,550.382,367.454,547.678,368.12,544.801z"/>
		<path fill="#1B2B4B" d="M365.938,563.138c-0.932,0.168-1.808,0.222-2.045-1.014C364.931,561.744,365.937,561.428,365.938,563.138z
			"/>
		<path fill="#1B2B4B" d="M368.015,564.081c-0.834-0.042-1.84,0.288-2.114-0.973C366.999,562.578,367.646,563.028,368.015,564.081z"
			/>
		<path fill="#2E8BC6" d="M361.289,557.899c-0.217-0.265-0.215-0.529,0.001-0.789c0.276,0.131,0.556,0.26,0.836,0.39
			C361.847,557.632,361.568,557.766,361.289,557.899z"/>
		<path fill="#163D60" d="M681.185,520.888c0.331-0.087,0.62-0.013,0.869,0.221c0.726,0.843,1.718,0.847,2.718,0.905
			c7.2,0.422,7.202,0.428,7.208,8.078c0.008,11.573-0.013,23.147,0.044,34.72c0.009,1.749-0.596,3.676,0.937,5.176
			c0.681,1.932-0.235,4.169,1.137,5.97c-2.473,0.241-4.228-0.19-4.162-3.347c0.029-1.401,1.092-3.9-1.413-4.019
			c-2.327-0.111-2.572,2.084-2.56,4.052c0.006,0.91,0.334,2.022-1.178,2.792c-1.665-1.935,0.072-4.817-1.86-7.298
			c-2.16,5.248-4.348,10.191-11.146,7.984c-0.25-0.332-0.5-0.664-0.75-0.995c0.305-0.122,0.621-0.178,0.949-0.169
			c1.699-1.447,0.998-3.41,1.002-5.153c0.045-19.464,0.029-38.928,0.029-59.122c1.922,2.259-0.262,8.442,5.612,5.165
			c0.804-0.449,1.217,1.201,1.347,2.219C680.098,519.101,678.574,520.915,681.185,520.888z"/>
		<path fill="#F5F8F8" d="M593.818,575.174c-1.221-0.114-2.442-0.228-3.663-0.342c-0.251-1.464-0.823-2.955-0.703-4.388
			c1.309-15.605,0.374-31.236,0.597-46.851c0.022-1.565,0.71-3.355-0.833-4.683c-0.544-8.888-0.544-8.965,8.432-8.885
			c7.557,0.068,15.372-1.319,22.207,3.459c0.009,0.344,0.185,0.511,0.528,0.503c7.224,8.587,6.242,18.162,3.368,27.966
			c-3.623,5.089-7.958,9.03-14.69,9.102c-0.326,0.077-0.651,0.155-0.977,0.232c-1.698,0.143-3.396,0.286-5.093,0.429
			c-2.181,1.935-0.795,4.456-1.012,6.688c-0.253,2.609-0.053,5.261-0.053,7.895C601.928,574.589,601.927,574.589,593.818,575.174z
			 M602.661,521.801c-1.082,4.6-0.114,9.24-0.173,13.858c-0.022,1.756-1.268,4.595,1.172,5.212c2.737,0.693,5.633-0.361,7.437-2.892
			c1.031-1.447,2.148-3.004,1.6-5.016c0.92-2.023-0.673-3.725-0.726-5.683C611.816,521.632,608.392,519.728,602.661,521.801z"/>
		<path fill="#267EB4" d="M632.44,546.72c-1.153,0.095-2.305,0.215-3.459,0.28c-3.275,0.184-3.933,2.091-1.934,4.158
			c2.863,2.958,1.499,3.241-1.16,5.482c-3.083,2.598-6.743,4.29-9.656,7.042c-1.272,1.201-2.553,2.123-1.847,4.113
			c0.297,0.84,0.308,1.87-0.73,1.98c-4.183,0.444-3.656,3.505-3.679,6.3c-3.466-1.753-8.309-2.329-6.992-8.172
			c1.116-2.352,5.274-1.149,5.419-3.563c0.34-5.645,5.144-7.879,8.025-11.413c2.919-3.58,7.12-6.116,10.759-9.109
			C629.298,544.132,631.261,544.716,632.44,546.72z"/>
		<path fill="#267EB4" d="M644.851,562.264c4.699-0.666,4.699-0.666,4.395-6.5c1.591,0.396,3.179,0.795,4.767,1.194
			c0.432,0.784,1.135,1.052,1.984,1.041c1.045,1.172,2.335,1.866,3.912,1.997c0.102,5.303,0.204,10.607,0.306,15.91
			c-4.48-0.737-8.96-1.475-13.439-2.212C648.561,569.475,648.347,565.593,644.851,562.264z"/>
		<path fill="#2871A1" d="M627.185,543.818c-3.639,2.993-7.839,5.529-10.759,9.109c-2.882,3.534-7.686,5.768-8.025,11.413
			c-0.145,2.413-4.303,1.211-5.419,3.563c0.003-5.396,0.006-10.79,0.009-16.184c1.698-0.143,3.396-0.286,5.093-0.429
			c0.326-0.077,0.652-0.155,0.978-0.233c6.732-0.072,11.066-4.013,14.69-9.102c0.765,0.047,1.53,0.094,2.294,0.14
			C626.426,542.669,626.806,543.243,627.185,543.818z"/>
		<path fill="#163D60" d="M655.998,557.999c-0.849,0.011-1.552-0.257-1.984-1.041c0.01-14.97,0.02-29.94,0.03-44.909
			c2.965,0.704,1.886,3.133,1.897,4.88C656.028,530.618,655.994,544.308,655.998,557.999z"/>
		<path fill="#163D60" d="M626.046,542.094c-0.765-0.047-1.53-0.094-2.294-0.14c2.874-9.804,3.856-19.379-3.368-27.966
			c0.754-0.525,1.458-0.449,2.304-0.073c3.497,1.557,2.521,5.526,4.321,7.857c1.891,2.449,4.284,4.387,1.233,7.5
			c-0.19,0.193-0.211,0.65-0.163,0.962C628.711,534.416,627.447,538.266,626.046,542.094z"/>
		<path fill="#267EB4" d="M646.107,553.877c-1.711-0.003-3.866,0.805-3.95-2.167C643.763,551.905,645.238,552.338,646.107,553.877z"
			/>
		<path fill="#267EB4" d="M649.199,555.754c-1.615,0.319-3.046,0.339-3.082-1.903C647.512,553.892,648.758,554.171,649.199,555.754z
			"/>
		<path fill="#F5F8F8" d="M660.216,575.905c-0.102-5.303-0.204-10.607-0.306-15.91c0.056-15.129,0.244-30.26,0.073-45.387
			c-0.041-3.662,0.759-5.248,4.586-4.63c1.459,0.235,2.997,0.154,4.482,0.021c2.365-0.211,3.146,0.704,3.131,3.102
			c-0.13,20.619-0.152,41.238-0.205,61.857c-0.327-0.01-0.644,0.047-0.949,0.169C667.512,576.613,663.817,575.615,660.216,575.905z"
			/>
		<path fill="#1C4B7B" d="M665.587,507.931c-2.575,0.108-4.806-0.412-4.886-2.42c-0.104-2.617,2.475-1.118,3.845-1.506
			c0.623-0.177,1.312-0.106,1.967-0.185c1.67-0.203,3.609-3.661,4.775-0.663c1.025,2.633-2.873,2.97-4.385,4.529
			C666.538,508.061,665.643,507.923,665.587,507.931z"/>
		<path fill="#163D60" d="M680.034,510.037c-0.153,0.598-0.164,1.325-0.974,1.424c-0.161,0.02-0.548-0.378-0.525-0.541
			c0.113-0.805,0.822-0.828,1.436-0.948C679.97,509.972,680.034,510.037,680.034,510.037z"/>
		<path fill="#2871A1" d="M582.005,516.19c1.911,1.036,3.822,2.071,5.732,3.108c0.348,0.848,0.697,1.694,1.047,2.541
			c0,13.772,0,27.545,0,41.544c-6.309-2.864-10.046-8.751-16.721-9.593c0.415-1.956,2.309-2.725,3.331-4.168
			c1.305-1.843,3.81-1.678,5.025-4.286c2.717-5.833,4.046-11.681,3.593-18.031c-0.11-1.543-0.049-3.086-2.184-3.189
			c0,0,0.072-0.005,0.072-0.005C581.934,521.47,581.969,518.83,582.005,516.19z"/>
		<path fill="#9EB2C6" d="M572.062,553.791c6.676,0.842,10.413,6.728,16.721,9.593c0-14,0-27.772,0-41.544
			c0.144-0.976,0.288-1.952,0.433-2.928c1.543,1.329,0.855,3.118,0.833,4.683c-0.223,15.615,0.712,31.246-0.597,46.851
			c-0.12,1.433,0.453,2.924,0.703,4.388c-1.326-0.631-1.941-2.413-3.72-2.306c-5.301-5.304-12.272-8.167-18.242-12.492
			c-2.959-2.318-5.632-5.062-9.312-6.323c2.888-3.391,6.986-2.158,10.599-2.777C570.34,551.886,571.201,552.838,572.062,553.791z"/>
		<path fill="#2E8BC6" d="M556.022,498.978c-0.34-0.308-0.681-0.616-1.021-0.923C555.341,498.362,555.682,498.67,556.022,498.978z"
			/>
		<path fill="#377192" d="M462.85,555.332c-0.003-0.997-0.244-2.071,0.046-2.974c0.657-2.051-1.974-5.38,2.045-6.092
			c4.015-0.711,7.818,0.302,9.993,3.889c3.863,6.373-0.515,13.806-7.732,14.061c-3.518,0.125-4.866-0.901-4.383-4.404
			C463.021,558.345,462.853,556.827,462.85,555.332z"/>
		<path fill="#2871A1" d="M471.09,521.284c4.774,3.378,5.164,8.973,0.949,13.622c-2.044-2.637-4.468-3.768-7.457-1.503
			c-0.886-1.674-0.143-3.421-1.569-4.416c-0.155-0.308-0.16-0.618-0.016-0.932c1.159-3.291,1.534-7.595,6.989-5.337
			C470.132,522.779,470.713,521.786,471.09,521.284z"/>
		<path fill="#377192" d="M463.014,528.988c1.426,0.995,0.683,2.742,1.569,4.416c2.989-2.265,5.413-1.134,7.457,1.503
			c-2.16,1.826-4.9,1.582-7.141,1.013C460.86,534.896,463.501,531.376,463.014,528.988z"/>
		<path fill="#377192" d="M471.09,521.284c-0.378,0.502-0.958,1.495-1.103,1.435c-5.455-2.259-5.83,2.046-6.989,5.337
			c-0.053-0.66-0.055-1.329-0.167-1.979c-0.745-4.329,0.893-6.205,5.342-5.27C469.136,521.009,470.117,521.127,471.09,521.284z"/>
		<path fill="#2871A1" d="M506.051,572.041c-0.045-1.053-0.091-2.106-0.136-3.159c0.177-3.063,0.843-6.019,1.969-8.873
			c5.369-0.393,10.813,0.902,16.126-0.729c1.563,2.631,1.612,5.631,2.08,8.528c-0.047,0.716-0.093,1.432-0.14,2.148
			c-1.143-0.087-2.452,0.161-3.399-0.314C516.444,566.579,511.136,568.407,506.051,572.041z"/>
		<path fill="#377192" d="M516.466,522.839c1.638,7.401,3.156,14.593,4.855,21.741c0.551,2.32,0.241,3.16-2.419,3.274
			c-8.801,0.377-8.767,0.5-6.773-8.112c1.23-5.315,2.35-10.656,3.548-15.979C515.737,523.495,516.073,523.287,516.466,522.839z"/>
		<path fill="#377192" d="M524.009,559.281c-5.313,1.63-10.757,0.336-16.126,0.729C513.161,557.605,518.614,559.074,524.009,559.281
			z"/>
		<path fill="#377192" d="M413.273,559.984c4.369,2.43,8.743,2.949,13.125,0.032c-1.087,3.284-3.278,5.214-6.815,5.069
			C416.318,564.952,414.153,563.199,413.273,559.984z"/>
		<path fill="#2E8BC6" d="M440.951,527.96c-0.16,0.077-0.329,0.111-0.506,0.1c-0.499-5.311-0.501-10.62,0.031-15.928
			c1.164,2.557,0.186,5.289,0.647,7.903C441.066,522.677,441.008,525.319,440.951,527.96z"/>
		<path fill="#377192" d="M558.678,531.183c-0.007-1.984-0.154-3.983,0.042-5.947c0.147-1.476-1.034-3.648,1.213-4.262
			c1.873-0.513,3.95-0.444,5.706,0.833c4.172,3.036,3.703,7.451,3.333,11.728c-0.333,3.846-2.442,6.34-6.324,7.292
			c-2.849,0.698-4.455,0.301-4.012-3.202C558.903,535.51,558.685,533.333,558.678,531.183z M559.959,530.758
			c0.026,0.001,0.052,0.003,0.078,0.004c0,1.325-0.035,2.652,0.01,3.976c0.044,1.297-0.151,2.888,1.719,3.033
			c2.221,0.172,2.121-1.558,2.222-3.063c0.173-2.565-0.4-5.111,1.511-7.545c1.434-1.825-0.388-3.631-2.055-4.267
			c-1.681-0.642-2.762,1.124-3.116,2.44C559.867,527.05,560.052,528.941,559.959,530.758z"/>
		<path fill="#377192" d="M572.062,553.791c-0.861-0.952-1.722-1.904-2.583-2.856c11.938-5.339,13.049-15.662,12.348-26.819
			c2.134,0.104,2.074,1.647,2.184,3.189c0.453,6.35-0.876,12.198-3.593,18.031c-1.215,2.609-3.72,2.443-5.025,4.286
			C574.371,551.066,572.477,551.835,572.062,553.791z"/>
		<path fill="#2E8BC6" d="M545.866,575.095c-1.434-1.566-0.791-3.486-0.8-5.246c-0.083-16.941-0.102-33.882-0.141-50.823
			c0.409-2.299-0.588-4.747,0.74-6.948C546.323,533.082,546.001,554.088,545.866,575.095z"/>
		<path fill="#377192" d="M582.005,516.19c-0.035,2.64-0.07,5.28-0.105,7.92c-1.389-3.534-2.695-7.11-5.237-10.044
			c0.76-0.017,1.522-0.034,2.284-0.05C579.965,514.741,580.985,515.466,582.005,516.19z"/>
		<path fill="#2871A1" d="M578.945,514.016c-0.762,0.016-1.523,0.033-2.284,0.05c-0.242-0.323-0.486-0.647-0.729-0.97
			C577.135,512.755,578.171,512.959,578.945,514.016z"/>
		<path fill="#2871A1" d="M574.112,511.906c0.903-0.059,1.521,0.319,1.823,1.185C574.979,513.231,574.434,512.74,574.112,511.906z"
			/>
		<path fill="#2871A1" d="M489.969,527.021c2.423,0.825,4.831,2.528,6.319-1.563c0.958-2.634,3.774-1.014,5.727-1.43
			c-0.015,1.486-0.182,2.81-1.063,4.206c-2.023,3.203-3.319,6.645-3.045,10.663c0.172,2.51,0.354,5.359-4.311,4.112
			c-3.22-0.861-0.018,3.771-2.667,4.553c-1.994-4.7-6.363-9.006-1.358-14.716C490.591,531.68,489.881,529.001,489.969,527.021z"/>
		<path fill="#1C4B7B" d="M581.966,502.718c-0.097-0.084-0.194-0.168-0.291-0.252c0.115-0.062,0.234-0.181,0.342-0.171
			c0.105,0.01,0.197,0.152,0.295,0.237C582.196,502.594,582.081,502.656,581.966,502.718z"/>
		<path fill="#2871A1" d="M395.078,523.402c-0.931-0.066-0.988-0.782-0.928-1.426c0.042-0.453,0.26-1.169,0.559-1.264
			c0.844-0.269,1.11,0.433,1.178,1.123C395.954,522.505,395.866,523.148,395.078,523.402z"/>
		<path fill="#2E8BC6" d="M394.404,515.747c0.112,0.04,0.224,0.079,0.336,0.119c-0.046,0.127-0.066,0.277-0.151,0.368
			c-0.032,0.035-0.211-0.067-0.323-0.106C394.312,516,394.358,515.874,394.404,515.747z"/>
		<path fill="#377192" d="M380.836,538.141c2.203,0.19,5.69-1.49,4.756,3.268C384.005,540.321,382.421,539.231,380.836,538.141z"/>
		<path fill="#377192" d="M385.643,541.547c3.928-2.299,1.759,1.419,2.366,2.398C386.938,543.424,386.128,542.646,385.643,541.547z"
			/>
		<path fill="#377192" d="M378.161,535.988c0.874,0.097,1.59,0.39,1.744,1.39C379.323,536.915,378.742,536.451,378.161,535.988z"/>
		<path fill="#267EB4" d="M381.275,522.534c-0.773,1.8-1.37,3.743-3.698,3.039c-0.995-0.301-1.734-1.333-1.226-2.329
			C377.494,521,379.48,522.475,381.275,522.534z"/>
		<path fill="#267EB4" d="M388.004,527.995c-1.324-0.223-3.116,0.646-3.699-1.335c-0.275-0.934,0.515-1.472,1.407-1.538
			c2.128-0.158,2.271,1.327,2.284,2.882C387.996,528.005,388.004,527.995,388.004,527.995z"/>
		<path fill="#F5F8F8" d="M644.851,562.264c3.496,3.329,3.71,7.211,1.925,11.429c-3.203,2.76-6.875,3.381-10.644,1.671
			c-2.474-1.123-3.235-3.597-3.266-6.278c-0.062-5.367,3.242-8.328,8.581-7.562C642.595,561.688,643.718,562.013,644.851,562.264z"
			/>
		<path fill="#1B2B4B" d="M692.96,569.989c-1.533-1.5-0.928-3.427-0.937-5.176c-0.056-11.573-0.036-23.147-0.044-34.72
			c-0.005-7.649-0.008-7.656-7.208-8.078c-1-0.059-1.992-0.062-2.718-0.905c11.18-0.562,11.213-0.562,11.167,10.616
			C693.168,544.48,693.05,557.234,692.96,569.989z"/>
		<path fill="#1B2B4B" d="M602.661,521.801c5.731-2.073,9.154-0.169,9.309,5.479c0.054,1.958,1.646,3.66,0.726,5.683
			c-4.889,1.092-9.257-1.825-9.558-6.351C603.032,525.004,602.824,523.404,602.661,521.801z"/>
		<path fill="#377192" d="M602.661,521.801c0.162,1.603,0.37,3.203,0.477,4.81c0.301,4.526,4.669,7.443,9.558,6.351
			c0.547,2.013-0.569,3.57-1.6,5.017c-1.804,2.532-4.7,3.585-7.437,2.892c-2.44-0.617-1.194-3.457-1.172-5.212
			C602.547,531.041,601.58,526.401,602.661,521.801z"/>
		<path fill="#CFDAE5" d="M609.062,551.056c-0.326,0.078-0.652,0.156-0.978,0.233C608.411,551.211,608.736,551.133,609.062,551.056z
			"/>
		<path fill="#2871A1" d="M559.959,530.758c0.093-1.816-0.092-3.707,0.37-5.424c0.354-1.315,1.435-3.082,3.116-2.44
			c1.667,0.636,3.488,2.443,2.055,4.267c-1.912,2.433-1.339,4.98-1.511,7.545c-0.101,1.505-0.002,3.236-2.222,3.063
			c-1.87-0.145-1.675-1.736-1.719-3.033c-0.044-1.324-0.01-2.65-0.01-3.976C560.011,530.76,559.985,530.759,559.959,530.758z"/>
	</g>
</g>
</svg>
